<svg width="39" height="26" viewBox="0 0 39 26" fill="none" xmlns="http://www.w3.org/2000/svg">
<path fill-rule="evenodd" clip-rule="evenodd" d="M11.7937 1.02625C10.3584 -0.341424 8.03049 -0.342185 6.59412 1.02458L5.90762 1.67783C4.60187 1.32442 3.14101 1.64069 2.11285 2.62646C0.595715 4.08116 0.595715 6.44205 2.11285 7.89675L2.925 8.67545V18.5714H0V20.4286H6.33258C5.70051 21.0185 5.30833 21.8407 5.30833 22.75C5.30833 24.5449 6.83616 26 8.72083 26C10.6055 26 12.1333 24.5449 12.1333 22.75C12.1333 21.8407 11.7412 21.0185 11.1091 20.4286H27.8909C27.2588 21.0185 26.8667 21.8407 26.8667 22.75C26.8667 24.5449 28.3945 26 30.2792 26C32.1638 26 33.6917 24.5449 33.6917 22.75C33.6917 21.8407 33.2995 21.0185 32.6674 20.4286H39V18.5714H35.1V15.6811C36.7788 15.2886 38.025 13.8351 38.025 12.1021C38.025 10.0678 36.3078 8.4188 34.1895 8.4188H13.7573C13.6778 8.4188 13.6014 8.38843 13.5452 8.33448L13.1879 7.99202L13.5471 7.65022C14.9836 6.28336 14.9844 4.06649 13.5489 2.6987L11.7937 1.02625ZM11.8138 6.67438L12.1689 6.33647C12.8434 5.69465 12.8438 4.65381 12.1698 4.01161L10.4146 2.33916C9.74045 1.69677 8.64698 1.6964 7.97238 2.33832L7.63064 2.66351L11.8138 6.67438ZM33.15 18.5714H4.875V10.5451L10.0183 15.4767C10.2245 15.6744 10.504 15.7854 10.7954 15.7854H33.15V18.5714Z" fill="white"/>
</svg>
