<svg width="20" height="20" viewBox="0 0 20 20" fill="none" xmlns="http://www.w3.org/2000/svg">
<g clip-path="url(#clip0_7696_20548)">
<path d="M10.4598 0H11.8094V1.86161C14.0827 1.86161 16.356 1.86626 18.6319 1.85441C19.025 1.81722 19.4203 1.89466 19.7723 2.07781C19.9547 2.44019 20.0321 2.84849 19.995 3.25443C19.9837 7.29016 19.9824 11.3248 19.9909 15.3583C20.0289 16.0376 20.003 16.7191 19.9136 17.3933C19.8227 17.8769 19.2548 17.8888 18.8753 17.9048C16.5218 17.9116 14.1658 17.9002 11.8098 17.9048V19.9979H10.3987C6.93616 19.3556 3.46663 18.7603 0 18.1392V1.86161C3.4873 1.24178 6.9746 0.630408 10.4598 0Z" fill="#207245"/>
<path d="M11.8096 2.55811H19.307V17.2089H11.8096V15.8127H13.6282V14.186H11.8096V13.2552H13.6282V11.6279H11.8096V10.6971H13.6282V9.0695H11.8096V8.13869H13.6282V6.51148H11.8096V5.58322H13.6282V3.95346H11.8096V2.55811Z" fill="white"/>
<path d="M14.5356 3.95361H17.7183V5.58252H14.5356V3.95361Z" fill="#207245"/>
<path d="M6.72931 6.13231C7.24267 6.09507 7.75768 6.06334 8.27435 6.03711C7.66812 7.31034 7.05708 8.58088 6.44121 9.84875C7.06617 11.151 7.70436 12.444 8.33139 13.7463C7.78441 13.7141 7.23771 13.6784 6.69128 13.6392C6.25923 12.6891 5.88068 11.7144 5.5575 10.7199C5.24874 11.6642 4.80771 12.5548 4.45349 13.4806C3.95749 13.4734 3.45818 13.4526 2.96094 13.4315C3.54457 12.2616 4.10835 11.0825 4.71017 9.91983C4.19887 8.72205 3.63798 7.54755 3.11056 6.35697C3.61042 6.3265 4.11028 6.29703 4.61014 6.26854C4.94866 7.17777 5.3186 8.07557 5.59842 9.00806C5.89809 8.01972 6.34573 7.08976 6.72972 6.13357L6.72931 6.13231Z" fill="white"/>
<path d="M14.5356 6.51123H17.7183V8.13929H14.5356V6.51123ZM14.5356 9.06925H17.7183V10.6973H14.5356V9.06925ZM14.5356 11.6273H17.7183V13.2553H14.5356V11.6273ZM14.5356 14.1853H17.7183V15.8133H14.5356V14.1853Z" fill="#207245"/>
</g>
<defs>
<clipPath id="clip0_7696_20548">
<rect width="20" height="20" fill="white"/>
</clipPath>
</defs>
</svg>
