<svg width="20" height="20" viewBox="0 0 20 20" fill="none" xmlns="http://www.w3.org/2000/svg">
<g clip-path="url(#clip0_7696_20555)">
<path d="M18.1875 1V16.3125H1.8125V4.3125L6.125 0H17.2188C17.75 0 18.1875 0.46875 18.1875 1Z" fill="#DEDEDE"/>
<path d="M5.21875 4.3125H1.84375L6.125 0L6.09375 3.375C6.125 3.90625 5.71875 4.3125 5.21875 4.3125Z" fill="#FF402F"/>
<path d="M11.5937 8.74977C10.6875 7.87477 10.0312 6.87477 10.0312 6.87477C10.2812 6.49977 10.875 4.34352 9.96875 3.71852C9.0625 3.09352 8.59375 4.24977 8.59375 4.24977C8.1875 5.68727 9.15625 6.99977 9.15625 6.99977L8.0625 9.40602C7.9375 9.40602 4.46875 10.7498 5.65625 12.406C6.875 14.0623 8.5625 10.0623 8.5625 10.0623C9.21875 9.84352 11.2188 9.56227 11.2188 9.56227C12 10.6248 12.9375 10.9685 12.9375 10.9685C14.375 11.3435 14.5312 10.156 14.5312 10.156C14.5625 8.59352 11.5937 8.74977 11.5937 8.74977ZM6.25 11.8435C6.21875 11.8435 6.21875 11.8123 6.21875 11.8123C6.03125 11.3748 7.46875 10.531 7.46875 10.531C7.46875 10.531 6.6875 12.031 6.25 11.8435ZM9.5 4.28102C9.90625 4.65602 9.5625 5.93727 9.5625 5.93727C9.5625 5.93727 9.09375 4.65602 9.5 4.28102ZM9.125 9.12477L9.6875 7.74977L10.5625 8.81227L9.125 9.12477ZM13.75 10.1248C13.5 10.531 12.4687 9.65602 12.375 9.56227C12.5312 9.56227 13.875 9.65603 13.75 10.1248ZM18.1875 15.3123V18.9998C18.1875 19.531 17.75 19.9998 17.1875 19.9998H2.78125C2.25 19.9998 1.78125 19.5623 1.78125 18.9998V15.3123H18.1875Z" fill="#FF402F"/>
<path d="M8.71875 16.9375C8.71875 17.1875 8.625 17.375 8.46875 17.5312C8.3125 17.6562 8.0625 17.7187 7.75 17.7187H7.5V18.625H7.09375V16.2188H7.8125C8.125 16.2188 8.34375 16.2812 8.5 16.4062C8.65625 16.5312 8.71875 16.6875 8.71875 16.9375ZM7.53125 17.4062H7.75C7.9375 17.4062 8.09375 17.375 8.1875 17.3125C8.28125 17.25 8.34375 17.125 8.34375 16.9687C8.34375 16.8437 8.3125 16.7187 8.21875 16.6562C8.125 16.5937 8 16.5625 7.8125 16.5625H7.53125V17.4062ZM11.1875 17.4062C11.1875 17.8125 11.0625 18.125 10.8438 18.3125C10.625 18.5312 10.3125 18.625 9.875 18.625H9.1875V16.2188H9.9375C10.3125 16.2188 10.625 16.3125 10.8438 16.5312C11.0625 16.7188 11.1875 17.0312 11.1875 17.4062ZM10.75 17.4062C10.75 16.8125 10.4687 16.5312 9.9375 16.5312H9.59375V18.2812H9.875C10.4687 18.3125 10.75 18 10.75 17.4062ZM12.0938 18.625H11.6875V16.2188H13.0625V16.5625H12.0938V17.3125H13V17.6562H12.0938V18.625Z" fill="#EFF2F3"/>
</g>
<defs>
<clipPath id="clip0_7696_20555">
<rect width="20" height="20" fill="white"/>
</clipPath>
</defs>
</svg>
